<?xml version="1.0" encoding="UTF-8" standalone="no"?><!DOCTYPE svg PUBLIC "-//W3C//DTD SVG 1.1//EN" "http://www.w3.org/Graphics/SVG/1.1/DTD/svg11.dtd"><svg width="100%" height="100%" viewBox="10 10 47.5 47.5" version="1.1" xmlns="http://www.w3.org/2000/svg" xmlns:xlink="http://www.w3.org/1999/xlink" xml:space="preserve" xmlns:serif="http://www.serif.com/" style="fill-rule:evenodd;clip-rule:evenodd;stroke-linejoin:round;stroke-miterlimit:2;"><path d="M57.346,62.049l-0.133,-0l0.05,-0.041l0.083,-0.069l-0,0.11Zm-28.146,-27.001l-0,21.786c-0,0.307 0.25,0.557 0.557,0.557l7.961,0c0.309,0 0.559,-0.25 0.559,-0.557l0,-21.786l5.771,0c0.291,0 0.531,-0.224 0.555,-0.512l0.557,-6.564c0.026,-0.326 -0.229,-0.606 -0.557,-0.606l-6.326,-0l0,-4.655c0,-1.093 0.883,-1.978 1.976,-1.978l4.447,0c0.309,0 0.559,-0.25 0.559,-0.557l0,-6.564c0,-0.309 -0.25,-0.559 -0.559,-0.559l-7.516,-0c-4.409,-0 -7.984,3.575 -7.984,7.985l-0,6.328l-3.982,-0c-0.307,-0 -0.557,0.252 -0.557,0.559l-0,6.564c-0,0.309 0.25,0.559 0.557,0.559l3.982,0Z" style="fill:#975d4f;"/></svg>