<?xml version="1.0" encoding="UTF-8" standalone="no"?><!DOCTYPE svg PUBLIC "-//W3C//DTD SVG 1.1//EN" "http://www.w3.org/Graphics/SVG/1.1/DTD/svg11.dtd"><svg width="100%" height="100%" viewBox="10 10 47.5 47.5" version="1.1" xmlns="http://www.w3.org/2000/svg" xmlns:xlink="http://www.w3.org/1999/xlink" xml:space="preserve" xmlns:serif="http://www.serif.com/" style="fill-rule:evenodd;clip-rule:evenodd;stroke-linejoin:round;stroke-miterlimit:2;"><path d="M44.369,58.189l-18.516,-0c-7.681,-0 -13.931,-6.248 -13.931,-13.931l-0,-18.516c-0,-7.683 6.25,-13.933 13.931,-13.933l18.516,-0c7.683,-0 13.933,6.25 13.933,13.933l0,18.516c0,7.683 -6.25,13.931 -13.933,13.931Zm-18.516,-42.016c-5.276,-0 -9.567,4.291 -9.567,9.569l0,18.516c0,5.276 4.291,9.569 9.567,9.569l18.516,0c5.278,0 9.569,-4.293 9.569,-9.569l0,-18.516c0,-5.278 -4.291,-9.569 -9.569,-9.569l-18.516,-0Zm9.45,7.404c-6.299,0 -11.421,5.124 -11.421,11.422c-0,6.3 5.122,11.424 11.421,11.424c6.298,-0 11.422,-5.124 11.422,-11.424c-0,-6.298 -5.124,-11.422 -11.422,-11.422Zm0,18.739c-4.036,-0 -7.317,-3.281 -7.317,-7.317c0,-4.034 3.281,-7.315 7.317,-7.315c4.034,0 7.315,3.281 7.315,7.315c-0,4.036 -3.281,7.317 -7.315,7.317Zm12.088,-22.225c-1.502,0 -2.72,1.218 -2.72,2.719c0,1.501 1.218,2.719 2.72,2.719c1.501,0 2.719,-1.218 2.719,-2.719c-0,-1.501 -1.218,-2.719 -2.719,-2.719Z" style="fill:#975d4f;"/></svg>